<svg width="32" height="32" viewBox="0 0 32 32" fill="none" xmlns="http://www.w3.org/2000/svg">
<g clip-path="url(#clip0_301_2)">
<rect width="32" height="32" fill="#212529"/>
<path d="M5.86328 8.7627C11.1953 7.96191 15.4727 6.95605 18.6953 5.74512C19.8574 5.31543 20.4385 4.91504 20.4385 4.54395C20.4385 4.21191 20.248 3.875 19.8672 3.5332L20.9805 3.06445C21.6055 3.41602 22.1377 3.8457 22.5771 4.35352C22.9971 4.83203 23.207 5.30078 23.207 5.75977C23.207 6.14062 23.0508 6.41895 22.7383 6.59473C22.5625 6.69238 22.2842 6.78027 21.9033 6.8584C21.083 7.04395 20.1162 7.30762 19.0029 7.64941C18.5537 7.78613 18.1436 7.89844 17.7725 7.98633C17.7627 10.1543 17.7139 12.0098 17.626 13.5527L17.9775 13.5381L21.1562 13.3477C22.2695 13.2891 22.9531 13.2354 23.207 13.1865C23.5977 13.1182 23.9541 12.9717 24.2764 12.7471C24.6377 12.5127 25.0088 12.3955 25.3896 12.3955C25.7705 12.3955 26.2734 12.5664 26.8984 12.9082C27.6895 13.3281 28.085 13.7578 28.085 14.1973C28.085 14.4707 27.9629 14.6953 27.7188 14.8711C27.4551 15.0566 27.1328 15.1494 26.752 15.1494C26.7227 15.1494 26.3857 15.1152 25.7412 15.0469C24.5303 14.9297 23.1826 14.8711 21.6982 14.8711C20.292 14.8711 18.8906 14.915 17.4941 15.0029C17.3281 17.5811 16.8643 19.6416 16.1025 21.1846C14.667 24.1338 11.835 26.5312 7.60645 28.377L6.81543 27.4541C9.79395 26.0576 11.9277 24.3779 13.2168 22.415C14.3691 20.6572 15.0869 18.2256 15.3701 15.1201C11.1416 15.4912 8.5293 15.833 7.5332 16.1455C6.92773 16.3408 6.50781 16.4385 6.27344 16.4385C5.6582 16.4385 5.02832 16.0967 4.38379 15.4131C3.9834 14.9834 3.68555 14.3877 3.49023 13.626L4.38379 12.8057C4.68652 13.3525 5.06738 13.7285 5.52637 13.9336C5.94629 14.1191 6.49316 14.2119 7.16699 14.2119C7.9873 14.2119 10.751 14.0459 15.458 13.7139C15.5068 12.5029 15.5312 11.3848 15.5312 10.3594C15.5312 9.95898 15.5264 9.32422 15.5166 8.45508C12.1865 9.09961 9.0957 9.56348 6.24414 9.84668L5.86328 8.7627Z" fill="#F5E5D8"/>
</g>
<defs>
<clipPath id="clip0_301_2">
<rect width="32" height="32" fill="white"/>
</clipPath>
</defs>
</svg>
